# xmcd
#
# Track frame offsets: 
#        150
#        17537
#        37694
#        55103
#        76185
#        92968
#        109103
#        124091
#        141393
#        158712
#        171022
#        196028
#        210187
#        228967
#        250914
#        282597
#
# Disc length: 4319 seconds
#
# Revision: 0
# Processed by: cddbd v1.5.2PL0 Copyright (c) Steve Scherf et al.
# Submitted via: ExactAudioCopy v0.99pb5
#
DISCID=c710dd10
DTITLE=Sandi Thom - Merchants And Thieves - Delux Edition
DYEAR=2011
DGENRE=Blues
TTITLE0=Maggie McCall
TTITLE1=Runaway Train
TTITLE2=Gold Dust
TTITLE3=Let It Stay
TTITLE4=Merchants And Thieves
TTITLE5=Show No Concern
TTITLE6=This Ol' World
TTITLE7=The Sadness
TTITLE8=Heart Of Stone
TTITLE9=Ghost Town
TTITLE10=Belly Of The Blues
TTITLE11=This Ol' World
TTITLE12=I Need Your Love So Bad
TTITLE13=The House Of The Rising Sun
TTITLE14=If Heartaches Were Nickels
TTITLE15=Gold Dust
EXTD=
EXTT0=
EXTT1=
EXTT2=
EXTT3=
EXTT4=
EXTT5=
EXTT6=
EXTT7=
EXTT8=
EXTT9=
EXTT10=
EXTT11=
EXTT12=
EXTT13=
EXTT14=
EXTT15=
PLAYORDER=
